<svg width="18" height="20" viewBox="0 0 18 20" fill="none" xmlns="http://www.w3.org/2000/svg">
<path d="M0.750005 20C0.533338 20 0.354338 19.929 0.213005 19.787C0.0716714 19.645 0.000671318 19.466 4.65116e-06 19.25C-0.000662016 19.034 0.070338 18.855 0.213005 18.713C0.355671 18.571 0.534671 18.5 0.750005 18.5H2.5V17.75H1.75C1.53334 17.75 1.35434 17.679 1.213 17.537C1.07167 17.395 1.00067 17.216 1 17C0.999338 16.784 1.07034 16.605 1.213 16.463C1.35567 16.321 1.53467 16.25 1.75 16.25H2.5V15.5H0.750005C0.533338 15.5 0.354338 15.429 0.213005 15.287C0.0716714 15.145 0.000671318 14.966 4.65116e-06 14.75C-0.000662016 14.534 0.070338 14.355 0.213005 14.213C0.355671 14.071 0.534671 14 0.750005 14H3C3.28334 14 3.521 14.096 3.713 14.288C3.905 14.48 4.00067 14.7173 4 15V16C4 16.2833 3.904 16.521 3.712 16.713C3.52 16.905 3.28267 17.0007 3 17C3.28334 17 3.521 17.096 3.713 17.288C3.905 17.48 4.00067 17.7173 4 18V19C4 19.2833 3.904 19.521 3.712 19.713C3.52 19.905 3.28267 20.0007 3 20H0.750005ZM0.750005 13C0.533338 13 0.354338 12.929 0.213005 12.787C0.0716714 12.645 0.000671318 12.466 4.65116e-06 12.25V10.25C4.65116e-06 9.96667 0.0960048 9.72933 0.288005 9.538C0.480005 9.34667 0.717338 9.25067 1 9.25H2.5V8.5H0.750005C0.533338 8.5 0.354338 8.429 0.213005 8.287C0.0716714 8.145 0.000671318 7.966 4.65116e-06 7.75C-0.000662016 7.534 0.070338 7.355 0.213005 7.213C0.355671 7.071 0.534671 7 0.750005 7H3C3.28334 7 3.521 7.096 3.713 7.288C3.905 7.48 4.00067 7.71733 4 8V9.75C4 10.0333 3.904 10.271 3.712 10.463C3.52 10.655 3.28267 10.7507 3 10.75H1.5V11.5H3.25C3.46667 11.5 3.646 11.571 3.788 11.713C3.93 11.855 4.00067 12.034 4 12.25C3.99934 12.466 3.92834 12.6453 3.787 12.788C3.64567 12.9307 3.46667 13.0013 3.25 13H0.750005ZM2.25 6C2.03334 6 1.85434 5.929 1.713 5.787C1.57167 5.645 1.50067 5.466 1.5 5.25V1.5H0.750005C0.533338 1.5 0.354338 1.429 0.213005 1.287C0.0716714 1.145 0.000671318 0.966 4.65116e-06 0.75C-0.000662016 0.534 0.070338 0.355 0.213005 0.213C0.355671 0.0710001 0.534671 0 0.750005 0H2.25C2.46667 0 2.646 0.0710001 2.788 0.213C2.93 0.355 3.00067 0.534 3 0.75V5.25C3 5.46667 2.929 5.646 2.787 5.788C2.645 5.93 2.466 6.00067 2.25 6ZM7 17C6.71667 17 6.47934 16.904 6.288 16.712C6.09667 16.52 6.00067 16.2827 6 16C5.99934 15.7173 6.09534 15.48 6.288 15.288C6.48067 15.096 6.718 15 7 15H17C17.2833 15 17.521 15.096 17.713 15.288C17.905 15.48 18.0007 15.7173 18 16C17.9993 16.2827 17.9033 16.5203 17.712 16.713C17.5207 16.9057 17.2833 17.0013 17 17H7ZM7 11C6.71667 11 6.47934 10.904 6.288 10.712C6.09667 10.52 6.00067 10.2827 6 10C5.99934 9.71733 6.09534 9.48 6.288 9.288C6.48067 9.096 6.718 9 7 9H17C17.2833 9 17.521 9.096 17.713 9.288C17.905 9.48 18.0007 9.71733 18 10C17.9993 10.2827 17.9033 10.5203 17.712 10.713C17.5207 10.9057 17.2833 11.0013 17 11H7ZM7 5C6.71667 5 6.47934 4.904 6.288 4.712C6.09667 4.52 6.00067 4.28267 6 4C5.99934 3.71733 6.09534 3.48 6.288 3.288C6.48067 3.096 6.718 3 7 3H17C17.2833 3 17.521 3.096 17.713 3.288C17.905 3.48 18.0007 3.71733 18 4C17.9993 4.28267 17.9033 4.52033 17.712 4.713C17.5207 4.90567 17.2833 5.00133 17 5H7Z" fill="white"/>
</svg>
