<svg width="20" height="20" viewBox="0 0 20 20" fill="none" xmlns="http://www.w3.org/2000/svg">
<path d="M11 10.175L13.25 12.425C13.4333 12.6083 13.525 12.8377 13.525 13.113C13.525 13.3883 13.4333 13.6257 13.25 13.825C13.05 14.025 12.8127 14.125 12.538 14.125C12.2633 14.125 12.0257 14.025 11.825 13.825L9.3 11.3C9.2 11.2 9.125 11.0877 9.075 10.963C9.025 10.8383 9 10.709 9 10.575V7C9 6.71667 9.096 6.47933 9.288 6.288C9.48 6.09667 9.71733 6.00067 10 6C10.2827 5.99933 10.5203 6.09533 10.713 6.288C10.9057 6.48067 11.0013 6.718 11 7V10.175ZM10 4C9.71667 4 9.47933 3.904 9.288 3.712C9.09667 3.52 9.00067 3.28267 9 3V2H11V3C11 3.28333 10.904 3.521 10.712 3.713C10.52 3.905 10.2827 4.00067 10 4ZM16 10C16 9.71667 16.096 9.47933 16.288 9.288C16.48 9.09667 16.7173 9.00067 17 9H18V11H17C16.7167 11 16.4793 10.904 16.288 10.712C16.0967 10.52 16.0007 10.2827 16 10ZM10 16C10.2833 16 10.521 16.096 10.713 16.288C10.905 16.48 11.0007 16.7173 11 17V18H9V17C9 16.7167 9.096 16.4793 9.288 16.288C9.48 16.0967 9.71733 16.0007 10 16ZM4 10C4 10.2833 3.904 10.521 3.712 10.713C3.52 10.905 3.28267 11.0007 3 11H2V9H3C3.28333 9 3.521 9.096 3.713 9.288C3.905 9.48 4.00067 9.71733 4 10ZM10 20C8.61667 20 7.31667 19.7373 6.1 19.212C4.88334 18.6867 3.825 17.9743 2.925 17.075C2.025 16.1757 1.31267 15.1173 0.788001 13.9C0.263335 12.6827 0.000667933 11.3827 1.26582e-06 10C-0.000665401 8.61733 0.262001 7.31733 0.788001 6.1C1.314 4.88267 2.02633 3.82433 2.925 2.925C3.82367 2.02567 4.882 1.31333 6.1 0.788C7.318 0.262667 8.618 0 10 0C11.382 0 12.682 0.262667 13.9 0.788C15.118 1.31333 16.1763 2.02567 17.075 2.925C17.9737 3.82433 18.6863 4.88267 19.213 6.1C19.7397 7.31733 20.002 8.61733 20 10C19.998 11.3827 19.7353 12.6827 19.212 13.9C18.6887 15.1173 17.9763 16.1757 17.075 17.075C16.1737 17.9743 15.1153 18.687 13.9 19.213C12.6847 19.739 11.3847 20.0013 10 20ZM18 10C18 7.76667 17.225 5.875 15.675 4.325C14.125 2.775 12.2333 2 10 2C7.76667 2 5.875 2.775 4.325 4.325C2.775 5.875 2 7.76667 2 10C2 12.2333 2.775 14.125 4.325 15.675C5.875 17.225 7.76667 18 10 18C12.2333 18 14.125 17.225 15.675 15.675C17.225 14.125 18 12.2333 18 10Z" fill="white"/>
</svg>
