<svg width="20" height="20" viewBox="0 0 20 20" fill="none" xmlns="http://www.w3.org/2000/svg">
<path d="M10 20C8.61667 20 7.31667 19.7373 6.1 19.212C4.88334 18.6867 3.825 17.9743 2.925 17.075C2.025 16.1757 1.31267 15.1173 0.788001 13.9C0.263335 12.6827 0.000667933 11.3827 1.26582e-06 10C-0.000665401 8.61733 0.262001 7.31733 0.788001 6.1C1.314 4.88267 2.02633 3.82433 2.925 2.925C3.82367 2.02567 4.882 1.31333 6.1 0.788C7.318 0.262667 8.618 0 10 0C10.8 0 11.5793 0.0916668 12.338 0.275C13.0967 0.458333 13.8257 0.725 14.525 1.075C14.775 1.20833 14.9377 1.40833 15.013 1.675C15.0883 1.94167 15.0423 2.19167 14.875 2.425C14.7077 2.65833 14.4867 2.80833 14.212 2.875C13.9373 2.94167 13.6667 2.90833 13.4 2.775C12.8667 2.525 12.3123 2.33333 11.737 2.2C11.1617 2.06667 10.5827 2 10 2C7.78333 2 5.89567 2.77933 4.337 4.338C2.77833 5.89667 1.99933 7.784 2 10C2.00067 12.216 2.78 14.1037 4.338 15.663C5.896 17.2223 7.78333 18.0013 10 18C12.2167 17.9987 14.1043 17.2197 15.663 15.663C17.2217 14.1063 18.0007 12.2187 18 10C18 9.86667 17.996 9.73767 17.988 9.613C17.98 9.48833 17.9673 9.359 17.95 9.225C17.9167 8.94167 17.971 8.671 18.113 8.413C18.255 8.155 18.4673 7.984 18.75 7.9C19.0167 7.81667 19.2667 7.84167 19.5 7.975C19.7333 8.10833 19.8667 8.30833 19.9 8.575C19.9333 8.80833 19.9583 9.04167 19.975 9.275C19.9917 9.50833 20 9.75 20 10C20 11.3833 19.7373 12.6833 19.212 13.9C18.6867 15.1167 17.9743 16.175 17.075 17.075C16.1757 17.975 15.1173 18.6877 13.9 19.213C12.6827 19.7383 11.3827 20.0007 10 20ZM8.6 11.8L17.9 2.475C18.0833 2.29167 18.3127 2.19567 18.588 2.187C18.8633 2.17833 19.1007 2.27433 19.3 2.475C19.4833 2.65833 19.575 2.89167 19.575 3.175C19.575 3.45833 19.4833 3.69167 19.3 3.875L9.3 13.9C9.1 14.1 8.86667 14.2 8.6 14.2C8.33333 14.2 8.1 14.1 7.9 13.9L5.05 11.05C4.86667 10.8667 4.775 10.6333 4.775 10.35C4.775 10.0667 4.86667 9.83333 5.05 9.65C5.23334 9.46667 5.46667 9.375 5.75 9.375C6.03333 9.375 6.26667 9.46667 6.45 9.65L8.6 11.8Z" fill="white"/>
</svg>
